          <svg width="20" height="20" viewBox="0 0 20 20" fill="none" xmlns="http://www.w3.org/2000/svg">
            <path fill-rule="evenodd" clip-rule="evenodd"
              d="M16.0893 2.06605C15.0533 1.26989 13.8712 0.684734 12.6099 0.34375V5.5458L16.0893 2.06605ZM0.345215 7.39389C0.684603 6.13081 1.26988 4.94711 2.06751 3.91062L5.54727 7.39389H0.345215ZM17.9342 3.91062C18.7312 4.94754 19.3164 6.1311 19.6565 7.39389H14.4537L17.9342 3.91062ZM0.345215 12.6104H5.54727L2.06791 16.087C1.27183 15.052 0.686545 13.8708 0.345215 12.6104ZM3.91286 17.9328C4.94892 18.7288 6.13101 19.3139 7.39223 19.6551V14.455L3.91286 17.9328ZM3.91286 2.06605C4.94857 1.26946 6.13077 0.684267 7.39223 0.34375V5.5458L3.91286 2.06605ZM12.6091 19.6551C13.8706 19.3145 15.0528 18.7294 16.0885 17.9328L12.6091 14.4561V19.6551ZM17.9331 16.0882L14.4537 12.6116H19.6554C19.3147 13.8721 18.7295 15.0534 17.9331 16.0882Z"
              fill="#0052B4" />
            <path fill-rule="evenodd" clip-rule="evenodd"
              d="M19.9154 8.6947H11.3043V0.0832032C10.4382 -0.0277344 9.56143 -0.0277344 8.69529 0.0832032V8.69431H0.0841804C-0.0287112 9.56111 -0.0287112 10.4389 0.0841804 11.3057H8.69529V19.9168C9.56143 20.0277 10.4382 20.0277 11.3043 19.9168V11.3057H19.9154C20.0283 10.439 20.0283 9.56137 19.9154 8.6947ZM12.6106 12.6112L17.0701 17.0722L17.658 16.4277L13.8376 12.6112H12.609H12.6106ZM2.92916 17.0722L7.39136 12.6112V13.8389L3.57097 17.6613L2.92916 17.0722ZM7.39097 7.38882L2.92916 2.92935L2.34321 3.5739L6.1636 7.39624H7.3937L7.39097 7.38882ZM17.0701 2.92935L12.609 7.38882V6.16106L16.4294 2.33872L17.0701 2.92935Z"
              fill="#D80027" />
          </svg>