<svg width="80" height="80" viewBox="0 0 80 80" fill="none" xmlns="http://www.w3.org/2000/svg">
<path d="M34.9323 46.2656H21.599C20.7149 46.2656 19.8671 45.9144 19.2419 45.2893C18.6168 44.6642 18.2656 43.8163 18.2656 42.9323V39.599C18.2656 38.7149 18.6168 37.8671 19.2419 37.2419C19.8671 36.6168 20.7149 36.2656 21.599 36.2656H58.2656C59.1497 36.2656 59.9975 36.6168 60.6226 37.2419C61.2478 37.8671 61.599 38.7149 61.599 39.599V42.9323C61.599 43.8163 61.2478 44.6642 60.6226 45.2893C59.9975 45.9144 59.1497 46.2656 58.2656 46.2656H44.9323" stroke="#0A0A0A" stroke-width="2" stroke-linecap="round" stroke-linejoin="round"/>
<path d="M44.9323 46.2656H56.599L55.1523 66.5023C55.0923 67.3447 54.7148 68.1329 54.0961 68.7077C53.4774 69.2826 52.6635 69.6011 51.819 69.5989H28.0356C27.1911 69.6011 26.3772 69.2826 25.7585 68.7077C25.1397 68.1329 24.7623 67.3447 24.7023 66.5023L23.2656 46.2656H34.9323" stroke="#0A0A0A" stroke-width="2" stroke-linecap="round" stroke-linejoin="round"/>
<path d="M34.9336 36.2656V69.599" stroke="#0A0A0A" stroke-width="2" stroke-linecap="round" stroke-linejoin="round"/>
<path d="M44.9336 69.599V36.2656" stroke="#0A0A0A" stroke-width="2" stroke-linecap="round" stroke-linejoin="round"/>
<path d="M28.2664 31.8937C30.2664 33.907 39.933 36.267 39.933 36.267C39.933 36.267 37.5697 26.6003 35.5597 24.6003C34.5925 23.6332 33.2808 23.0898 31.913 23.0898C30.5453 23.0898 29.2335 23.6332 28.2664 24.6003C27.2992 25.5675 26.7559 26.8792 26.7559 28.247C26.7559 29.6148 27.2992 30.9265 28.2664 31.8937V31.8937Z" stroke="#0A0A0A" stroke-width="2" stroke-linecap="round" stroke-linejoin="round"/>
<path d="M51.6003 31.8937C49.6003 33.907 39.9336 36.267 39.9336 36.267C39.9336 36.267 42.2969 26.6003 44.3069 24.6003C44.7858 24.1215 45.3543 23.7416 45.98 23.4824C46.6057 23.2232 47.2764 23.0898 47.9536 23.0898C48.6309 23.0898 49.3015 23.2232 49.9272 23.4824C50.5529 23.7416 51.1214 24.1215 51.6003 24.6003C52.0792 25.0792 52.459 25.6478 52.7182 26.2734C52.9774 26.8991 53.1108 27.5698 53.1108 28.247C53.1108 28.9243 52.9774 29.5949 52.7182 30.2206C52.459 30.8463 52.0792 31.4148 51.6003 31.8937V31.8937Z" stroke="#0A0A0A" stroke-width="2" stroke-linecap="round" stroke-linejoin="round"/>
<path d="M39.9336 14.5996V9.59961" stroke="#0A0A0A" stroke-width="2" stroke-linecap="round" stroke-linejoin="round"/>
<path d="M63.5039 24.3634L67.0406 20.8301" stroke="#0A0A0A" stroke-width="2" stroke-linecap="round" stroke-linejoin="round"/>
<path d="M73.2656 46.2656H78.2656" stroke="#0A0A0A" stroke-width="2" stroke-linecap="round" stroke-linejoin="round"/>
<path d="M16.3628 24.3634L12.8262 20.8301" stroke="#0A0A0A" stroke-width="2" stroke-linecap="round" stroke-linejoin="round"/>
<path d="M6.59961 46.2656H1.59961" stroke="#0A0A0A" stroke-width="2" stroke-linecap="round" stroke-linejoin="round"/>
</svg>
