<svg width="112" height="112" viewBox="0 0 112 112" fill="none" xmlns="http://www.w3.org/2000/svg">
<rect width="112" height="112" rx="30" fill="#F8F8F8"/>
<path d="M50.9323 62.2656H37.599C36.7149 62.2656 35.8671 61.9144 35.2419 61.2893C34.6168 60.6642 34.2656 59.8163 34.2656 58.9323V55.599C34.2656 54.7149 34.6168 53.8671 35.2419 53.2419C35.8671 52.6168 36.7149 52.2656 37.599 52.2656H74.2656C75.1497 52.2656 75.9975 52.6168 76.6226 53.2419C77.2478 53.8671 77.599 54.7149 77.599 55.599V58.9323C77.599 59.8163 77.2478 60.6642 76.6226 61.2893C75.9975 61.9144 75.1497 62.2656 74.2656 62.2656H60.9323" stroke="#0A0A0A" stroke-width="2" stroke-linecap="round" stroke-linejoin="round"/>
<path d="M60.9323 62.2656H72.599L71.1523 82.5023C71.0923 83.3447 70.7148 84.1329 70.0961 84.7077C69.4774 85.2826 68.6635 85.6011 67.819 85.5989H44.0356C43.1911 85.6011 42.3772 85.2826 41.7585 84.7077C41.1397 84.1329 40.7623 83.3447 40.7023 82.5023L39.2656 62.2656H50.9323" stroke="#0A0A0A" stroke-width="2" stroke-linecap="round" stroke-linejoin="round"/>
<path d="M50.9336 52.2656V85.599" stroke="#0A0A0A" stroke-width="2" stroke-linecap="round" stroke-linejoin="round"/>
<path d="M60.9336 85.599V52.2656" stroke="#0A0A0A" stroke-width="2" stroke-linecap="round" stroke-linejoin="round"/>
<path d="M44.2664 47.8937C46.2664 49.907 55.933 52.267 55.933 52.267C55.933 52.267 53.5697 42.6003 51.5597 40.6003C50.5925 39.6332 49.2808 39.0898 47.913 39.0898C46.5453 39.0898 45.2335 39.6332 44.2664 40.6003C43.2992 41.5675 42.7559 42.8792 42.7559 44.247C42.7559 45.6148 43.2992 46.9265 44.2664 47.8937V47.8937Z" stroke="#0A0A0A" stroke-width="2" stroke-linecap="round" stroke-linejoin="round"/>
<path d="M67.6003 47.8937C65.6003 49.907 55.9336 52.267 55.9336 52.267C55.9336 52.267 58.2969 42.6003 60.3069 40.6003C60.7858 40.1215 61.3543 39.7416 61.98 39.4824C62.6057 39.2232 63.2764 39.0898 63.9536 39.0898C64.6309 39.0898 65.3015 39.2232 65.9272 39.4824C66.5529 39.7416 67.1214 40.1215 67.6003 40.6003C68.0792 41.0792 68.459 41.6478 68.7182 42.2734C68.9774 42.8991 69.1108 43.5698 69.1108 44.247C69.1108 44.9243 68.9774 45.5949 68.7182 46.2206C68.459 46.8463 68.0792 47.4148 67.6003 47.8937V47.8937Z" stroke="#0A0A0A" stroke-width="2" stroke-linecap="round" stroke-linejoin="round"/>
<path d="M55.9336 30.5996V25.5996" stroke="#0A0A0A" stroke-width="2" stroke-linecap="round" stroke-linejoin="round"/>
<path d="M79.5039 40.3634L83.0406 36.8301" stroke="#0A0A0A" stroke-width="2" stroke-linecap="round" stroke-linejoin="round"/>
<path d="M89.2656 62.2656H94.2656" stroke="#0A0A0A" stroke-width="2" stroke-linecap="round" stroke-linejoin="round"/>
<path d="M32.3628 40.3634L28.8262 36.8301" stroke="#0A0A0A" stroke-width="2" stroke-linecap="round" stroke-linejoin="round"/>
<path d="M22.5996 62.2656H17.5996" stroke="#0A0A0A" stroke-width="2" stroke-linecap="round" stroke-linejoin="round"/>
</svg>
