<svg width="80" height="80" viewBox="0 0 80 80" fill="none" xmlns="http://www.w3.org/2000/svg">
<rect width="80" height="80" rx="20" fill="#F8F8F8"/>
<path fill-rule="evenodd" clip-rule="evenodd" d="M39.9994 45.766L44.0114 47.874C44.7914 48.284 45.7054 47.622 45.5554 46.752L44.7894 42.286L48.0354 39.126C48.6674 38.51 48.3194 37.436 47.4454 37.31L42.9614 36.658L40.9554 32.592C40.5654 31.8 39.4374 31.8 39.0454 32.592L37.0414 36.658L32.5574 37.31C31.6834 37.436 31.3354 38.51 31.9674 39.126L35.2134 42.286L34.4474 46.752C34.2974 47.622 35.2114 48.284 35.9914 47.874L40.0034 45.766H39.9994V45.766Z" stroke="#323232" stroke-width="2" stroke-linecap="round" stroke-linejoin="round"/>
<path d="M59.0008 39.998H56.8008" stroke="#323232" stroke-width="2" stroke-linecap="round" stroke-linejoin="round"/>
<path d="M23.2 39.998H21" stroke="#323232" stroke-width="2" stroke-linecap="round" stroke-linejoin="round"/>
<path d="M53.7211 26.2793L51.6211 28.3793" stroke="#323232" stroke-width="2" stroke-linecap="round" stroke-linejoin="round"/>
<path d="M26.3203 53.7782L28.4403 51.6582" stroke="#323232" stroke-width="2" stroke-linecap="round" stroke-linejoin="round"/>
<path d="M26.2793 26.3184L28.3793 28.4384" stroke="#323232" stroke-width="2" stroke-linecap="round" stroke-linejoin="round"/>
<path d="M53.7802 53.7191L51.6602 51.6191" stroke="#323232" stroke-width="2" stroke-linecap="round" stroke-linejoin="round"/>
<path d="M40 56.877V58.997" stroke="#323232" stroke-width="2" stroke-linecap="round" stroke-linejoin="round"/>
<path d="M40 20.998V23.118" stroke="#323232" stroke-width="2" stroke-linecap="round" stroke-linejoin="round"/>
</svg>
