<svg width="112" height="112" viewBox="0 0 112 112" fill="none" xmlns="http://www.w3.org/2000/svg">
<rect width="112" height="112" rx="30" fill="#F8F8F8"/>
<path d="M82.6667 32.6667V26" stroke="#0A0A0A" stroke-width="2" stroke-linecap="round" stroke-linejoin="round"/>
<path d="M79.332 29.3327H85.9987" stroke="#0A0A0A" stroke-width="2" stroke-linecap="round" stroke-linejoin="round"/>
<path fill-rule="evenodd" clip-rule="evenodd" d="M32.233 85.0149L26.983 79.7649C25.6697 78.4516 25.6697 76.3249 26.983 75.0149L58.8997 43.0983C60.213 41.7849 62.3397 41.7849 63.6497 43.0983L68.8997 48.3483C70.2131 49.6616 70.2131 51.7883 68.8997 53.0983L36.983 85.0149C35.673 86.3249 33.543 86.3249 32.233 85.0149Z" stroke="#0A0A0A" stroke-width="2" stroke-linecap="round" stroke-linejoin="round"/>
<path d="M61.032 60.3669L51.5986 50.9336" stroke="#0A0A0A" stroke-width="2" stroke-linecap="round" stroke-linejoin="round"/>
<path d="M85.9987 66.0006H79.332" stroke="#0A0A0A" stroke-width="2" stroke-linecap="round" stroke-linejoin="round"/>
<path d="M82.6667 62.666V69.3327" stroke="#0A0A0A" stroke-width="2" stroke-linecap="round" stroke-linejoin="round"/>
<path d="M45.9987 26V32.6667" stroke="#0A0A0A" stroke-width="2" stroke-linecap="round" stroke-linejoin="round"/>
<path d="M49.3337 29.3327H42.667" stroke="#0A0A0A" stroke-width="2" stroke-linecap="round" stroke-linejoin="round"/>
</svg>
